<svg width="160" height="160" viewBox="0 0 126 104" fill="none" xmlns="http://www.w3.org/2000/svg">
<g clip-path="url(#clip0_1658_24342)">
<path d="M75.4848 47.5501C76.5358 47.5501 77.3292 47.1062 77.8665 46.499V44.0941C75.9284 44.2111 74.0378 44.7013 74.0378 46.2893C74.0378 47.0363 74.6207 47.5501 75.4848 47.5501ZM77.8665 42.2025V41.1056C77.8665 40.1716 77.3292 39.6111 76.1389 39.6111C74.9483 39.6111 73.6872 40.1017 72.1456 40.8483L70.9316 38.3269C72.6129 37.4862 74.5743 36.9022 76.279 36.9022C79.8743 36.9022 81.2754 38.654 81.2754 41.2223V46.4522C81.2754 47.1293 81.6731 47.4333 82.303 47.4333V49.7915C79.9447 49.7915 78.9638 49.4411 78.263 48.2504C77.2128 49.3712 76.0448 50.0017 74.3638 50.0017C72.1697 50.0017 70.6285 48.6705 70.6285 46.686C70.6285 43.9535 73.2199 42.5297 77.8665 42.2025Z" fill="#100F0D"/>
<path d="M84.4186 37.183H87.6411L87.8045 38.6304C88.7154 37.6732 90.0461 36.8788 91.611 36.8788C94.4122 36.8788 95.6032 38.6073 95.6032 41.4324V49.7215H92.171V41.3389C92.171 40.2183 91.7044 39.4476 90.5364 39.4476C89.4854 39.4476 88.5749 39.9842 87.8278 40.9186V49.7215H84.4186V37.183Z" fill="#100F0D"/>
<path d="M64.7321 33.3765V44.2575C64.7321 45.9386 63.915 46.896 62.4909 46.896C61.5364 46.896 60.7858 46.4279 60.1991 45.6327L57.8559 47.7548C59.0645 49.2108 60.7014 50.0017 62.678 50.0017C66.0869 50.0017 68.2581 48.0638 68.2581 44.3278V33.3765H64.7321Z" fill="#100F0D"/>
<path d="M64.3648 60.3298C62.5722 59.8761 61.0236 59.4845 61.0236 58.1522C61.0236 57.0399 62.0847 56.2926 63.6636 56.2926C65.1461 56.2926 66.6713 56.6554 68.0826 57.3424L69.3129 54.7282C67.3826 53.8273 65.4792 53.3891 63.4979 53.3891C59.9839 53.3891 57.5299 55.367 57.5299 58.1989C57.5299 61.795 60.4757 62.5612 63.0745 63.2374C64.8963 63.7113 66.4694 64.1205 66.4694 65.4839C66.4694 66.6784 65.4204 67.3912 63.6636 67.3912C62.1422 67.3912 60.4286 66.8767 58.8287 65.9403L57.2388 68.5468C58.9847 69.6106 61.5022 70.2947 63.687 70.2947C67.5589 70.2947 69.9643 68.4331 69.9643 65.4372C69.9643 61.7461 66.8601 60.9606 64.3648 60.3298Z" fill="#100F0D"/>
<path d="M72.7296 59.9017H70.7448V57.4731H72.7296V54.3444H76.1619V57.4731H78.9684V59.9017H76.1619V66.1359C76.1619 67.0698 76.5121 67.5371 77.3062 67.5371C77.9369 67.5371 78.5206 67.3269 79.0108 66.9764L80.2723 69.0312C79.314 69.7782 77.9832 70.2923 76.6062 70.2923C73.9907 70.2923 72.7296 69.0079 72.7296 66.206V59.9017Z" fill="#100F0D"/>
<path d="M81.8287 57.4731H84.982L85.2143 59.4112C86.1726 57.7297 87.3629 57.1228 88.787 57.1228C89.3706 57.1228 89.908 57.2163 90.3282 57.3797L89.8371 60.5089C89.3943 60.345 88.857 60.228 88.1562 60.228C86.8718 60.228 86.0084 61.0226 85.2388 62.4703V70.0122H81.8287V57.4731Z" fill="#100F0D"/>
<path d="M118.459 59.9017H116.474V57.4731H118.459V54.3444H121.891V57.4731H124.697V59.9017H121.891V66.1359C121.891 67.0698 122.241 67.5371 123.035 67.5371C123.665 67.5371 124.248 67.3269 124.739 66.9764L126 69.0312C125.043 69.7782 123.712 70.2923 122.335 70.2923C119.719 70.2923 118.459 69.0079 118.459 66.206V59.9017Z" fill="#100F0D"/>
<path d="M104.03 39.325C105.665 39.325 106.272 40.539 106.272 42.1273H101.205C101.532 40.3061 102.63 39.325 104.03 39.325ZM103.937 36.8492C100.458 36.8492 97.6557 39.325 97.6557 43.3414C97.6557 47.5443 100.271 49.9959 103.96 49.9959C105.828 49.9959 107.58 49.4355 109.121 48.3612L107.696 46.19C106.646 46.8433 105.478 47.2643 104.217 47.2643C102.484 47.2643 101.497 46.3785 101.201 44.5946H109.285C109.379 44.0611 109.517 43.4998 109.517 42.5708C109.517 39.2083 107.533 36.8492 103.937 36.8492Z" fill="#100F0D"/>
<path d="M110.001 59.6215C111.634 59.6215 112.241 60.8352 112.241 62.4235H107.175C107.502 60.6028 108.599 59.6215 110.001 59.6215ZM109.907 57.1456C106.427 57.1456 103.625 59.6215 103.625 63.6379C103.625 67.8406 106.241 70.2923 109.93 70.2923C111.798 70.2923 113.55 69.732 115.091 68.6577L113.666 66.4861C112.615 67.1398 111.448 67.5608 110.187 67.5608C108.453 67.5608 107.468 66.6749 107.171 64.8911H115.255C115.349 64.3576 115.487 63.796 115.487 62.8673C115.487 59.5045 113.503 57.1456 109.907 57.1456Z" fill="#100F0D"/>
<path d="M96.8942 59.6212C98.5288 59.6212 99.1354 60.8349 99.1354 62.4232H94.0686C94.3954 60.6023 95.4935 59.6212 96.8942 59.6212ZM96.8008 57.1453C93.3215 57.1453 90.5196 59.6212 90.5196 63.6376C90.5196 67.8402 93.1348 70.292 96.8242 70.292C98.6923 70.292 100.444 69.7316 101.985 68.6573L100.56 66.4858C99.5101 67.1395 98.3421 67.5604 97.081 67.5604C95.3476 67.5604 94.3612 66.6744 94.0647 64.8908H102.149C102.243 64.3573 102.381 63.7957 102.381 62.867C102.381 59.5042 100.397 57.1453 96.8008 57.1453Z" fill="#100F0D"/>
<path d="M7.86086 61.2585C11.2245 66.9936 17.4584 70.8475 24.5725 70.8285C35.2163 70.7993 43.8519 62.1169 43.8231 51.4725C43.7943 40.829 35.1112 32.1933 24.4672 32.2225C13.8236 32.2513 5.1881 40.934 5.21712 51.5774C5.22078 52.872 5.35681 54.1356 5.6047 55.3586C5.6456 55.5162 5.80626 55.6018 5.95793 55.5641L8.64407 54.895C8.79788 54.8559 8.90598 54.7058 8.86874 54.5435C8.68333 53.5796 8.58372 52.5855 8.58084 51.5682C8.55715 42.7798 15.6879 35.61 24.4765 35.5862C33.2654 35.5625 40.4352 42.6932 40.4593 51.4816C40.483 60.2706 33.3522 67.4409 24.5632 67.4643C18.7427 67.4803 13.6361 64.3553 10.8414 59.6916C10.7661 59.5521 10.5932 59.4862 10.4456 59.5608L7.98716 60.8595C7.84339 60.9352 7.77985 61.1179 7.86086 61.2585Z" fill="#100F0D"/>
<path d="M34.68 55.6948L37.1315 57.0096C37.2762 57.0855 37.469 57.0397 37.53 56.8872C38.203 55.2674 38.5831 53.4975 38.5989 51.6427C38.6632 43.8802 32.4002 37.512 24.6374 37.447L24.5183 37.4464C16.8206 37.4464 10.5061 43.7094 10.4416 51.4072C10.3767 59.1706 16.6392 65.539 24.4022 65.6039L24.5215 65.6047C28.1975 65.6047 31.5564 64.1742 34.0715 61.8434C34.1947 61.7357 34.2201 61.5458 34.1053 61.4226L32.0138 59.5369C31.894 59.4282 31.709 59.448 31.5962 59.5516C29.7047 61.2223 27.2262 62.2404 24.5215 62.2404L24.4303 62.2401C18.5223 62.1906 13.756 57.3436 13.8054 51.4357C13.8544 45.5771 18.66 40.8107 24.5183 40.8107L24.6095 40.8109C30.5176 40.8604 35.2841 45.7072 35.2349 51.6146C35.2241 52.907 34.9791 54.1445 34.545 55.291C34.4801 55.4521 34.5377 55.6113 34.68 55.6948Z" fill="#100F0D"/>
<path d="M38.6977 31.5229C38.5669 31.4338 38.3843 31.4603 38.2934 31.5949L36.7243 33.8707C36.6337 34.0022 36.646 34.1886 36.7791 34.2847C42.1688 38.1253 45.6935 44.4206 45.6919 51.5285C45.6903 63.1976 36.1966 72.6895 24.5269 72.6888C12.8562 72.6888 3.36312 63.1946 3.36434 51.5224C3.36586 39.8547 12.8594 30.3622 24.5306 30.3649C27.0707 30.3626 29.5054 30.8194 31.7648 31.6435V31.6412C31.9101 31.6953 32.0771 31.6241 32.139 31.4719L33.1275 28.8763C33.1829 28.7311 33.1132 28.5654 32.9699 28.5027C30.3362 27.5342 27.495 27 24.5306 27C11.0066 26.9973 0.00167195 37.9994 3.93625e-08 51.5239C-0.000759922 65.0477 11.0028 76.0525 24.5263 76.053C38.0504 76.0537 49.0549 65.0522 49.0557 51.5295C49.0549 43.2786 44.9604 35.9715 38.6977 31.5229Z" fill="#100F0D"/>
</g>
<defs>
<clipPath id="clip0_1658_24342">
<rect width="126" height="49.6731" fill="white" transform="translate(0 27.1635)"/>
</clipPath>
</defs>
</svg>
